<svg width="32" height="32" viewBox="0 0 32 32" fill="none" xmlns="http://www.w3.org/2000/svg">
<path fill-rule="evenodd" clip-rule="evenodd" d="M15.9987 0.666504C14.4074 0.666504 12.8813 1.29865 11.7561 2.42386C10.6308 3.54908 9.9987 5.07521 9.9987 6.6665V8.6665H6.66536C5.78131 8.6665 4.93346 9.01769 4.30834 9.64281C3.68322 10.2679 3.33203 11.1158 3.33203 11.9998V25.3332C3.33203 26.9245 3.96417 28.4506 5.08939 29.5758C6.21461 30.701 7.74073 31.3332 9.33203 31.3332H22.6654C24.2567 31.3332 25.7828 30.701 26.908 29.5758C28.0332 28.4506 28.6654 26.9245 28.6654 25.3332V11.9998C28.6654 11.1158 28.3142 10.2679 27.6891 9.64281C27.0639 9.01769 26.2161 8.6665 25.332 8.6665H21.9987V6.6665C21.9987 5.07521 21.3666 3.54908 20.2413 2.42386C19.1161 1.29865 17.59 0.666504 15.9987 0.666504ZM15.9987 1.99984C14.761 1.99984 13.574 2.4915 12.6989 3.36667C11.8237 4.24184 11.332 5.42883 11.332 6.6665V14.6665C11.332 14.8433 11.2618 15.0129 11.1368 15.1379C11.0117 15.2629 10.8422 15.3332 10.6654 15.3332C10.4886 15.3332 10.319 15.2629 10.194 15.1379C10.0689 15.0129 9.9987 14.8433 9.9987 14.6665V9.99984H6.66536C6.13493 9.99984 5.62622 10.2106 5.25115 10.5856C4.87608 10.9607 4.66536 11.4694 4.66536 11.9998V25.3332C4.66589 26.5707 5.15773 27.7574 6.03278 28.6324C6.90784 29.5075 8.09452 29.9993 9.33203 29.9998H22.6654C23.2782 29.9999 23.8851 29.8793 24.4513 29.6448C25.0176 29.4103 25.532 29.0666 25.9654 28.6332C26.3987 28.1998 26.7425 27.6854 26.977 27.1191C27.2115 26.5529 27.3321 25.946 27.332 25.3332V11.9998C27.332 11.4694 27.1213 10.9607 26.7462 10.5856C26.3712 10.2106 25.8625 9.99984 25.332 9.99984H21.9987V14.6665C21.9987 14.8433 21.9285 15.0129 21.8034 15.1379C21.6784 15.2629 21.5088 15.3332 21.332 15.3332C21.1552 15.3332 20.9857 15.2629 20.8606 15.1379C20.7356 15.0129 20.6654 14.8433 20.6654 14.6665V9.99984H13.332C13.1552 9.99984 12.9857 9.9296 12.8606 9.80457C12.7356 9.67955 12.6654 9.50998 12.6654 9.33317C12.6654 9.15636 12.7356 8.98679 12.8606 8.86177C12.9857 8.73674 13.1552 8.6665 13.332 8.6665H20.6654V6.6665C20.6654 5.42883 20.1737 4.24184 19.2985 3.36667C18.4234 2.4915 17.2364 1.99984 15.9987 1.99984Z" fill="black"/>
</svg>
