<svg width="32" height="32" viewBox="0 0 32 32" fill="none" xmlns="http://www.w3.org/2000/svg">
<path fill-rule="evenodd" clip-rule="evenodd" d="M7.64645 7.64645C7.84171 7.45118 8.15829 7.45118 8.35355 7.64645L15.5 14.7929L22.6464 7.64645C22.8417 7.45118 23.1583 7.45118 23.3536 7.64645C23.5488 7.84171 23.5488 8.15829 23.3536 8.35355L16.2071 15.5L23.3536 22.6464C23.5488 22.8417 23.5488 23.1583 23.3536 23.3536C23.1583 23.5488 22.8417 23.5488 22.6464 23.3536L15.5 16.2071L8.35355 23.3536C8.15829 23.5488 7.84171 23.5488 7.64645 23.3536C7.45118 23.1583 7.45118 22.8417 7.64645 22.6464L14.7929 15.5L7.64645 8.35355C7.45118 8.15829 7.45118 7.84171 7.64645 7.64645Z" fill="#817E79"/>
</svg>
