<svg width="57" height="56" viewBox="0 0 57 56" fill="none" xmlns="http://www.w3.org/2000/svg">
<path fill-rule="evenodd" clip-rule="evenodd" d="M11.0087 45.3684H5.02174C4.55926 45.3686 4.10128 45.2788 3.67404 45.1041C3.24679 44.9295 2.85866 44.6734 2.53187 44.3506C2.20462 44.0283 1.94503 43.6455 1.76796 43.224C1.5909 42.8026 1.49984 42.3509 1.5 41.8947V9.47368C1.5 8.552 1.87096 7.66853 2.53187 7.01779C2.85866 6.695 3.24679 6.43895 3.67404 6.26431C4.10128 6.08966 4.55926 5.99985 5.02174 6H33.1957C34.1301 6 35.0258 6.3659 35.6855 7.01779C36.3464 7.66853 36.7174 8.552 36.7174 9.47368V14.1053C36.7174 14.4124 36.5937 14.7069 36.3736 14.924C36.1534 15.1412 35.8548 15.2632 35.5435 15.2632C35.2321 15.2632 34.9335 15.1412 34.7134 14.924C34.4932 14.7069 34.3696 14.4124 34.3696 14.1053V9.47368C34.37 9.3215 34.34 9.17072 34.2812 9.03004C34.2223 8.88935 34.1359 8.76152 34.0268 8.65391C33.9177 8.54629 33.7881 8.46102 33.6454 8.40299C33.5028 8.34497 33.3499 8.31533 33.1957 8.31579H5.02174C4.86745 8.31533 4.71459 8.34497 4.57195 8.40299C4.42932 8.46102 4.29972 8.54629 4.19062 8.65391C4.08152 8.76152 3.99507 8.88935 3.93624 9.03004C3.87741 9.17072 3.84736 9.3215 3.84783 9.47368V41.8947C3.84736 42.0469 3.87741 42.1977 3.93624 42.3384C3.99507 42.4791 4.08152 42.6069 4.19062 42.7145C4.29972 42.8221 4.42932 42.9074 4.57195 42.9654C4.71459 43.0235 4.86745 43.0531 5.02174 43.0526H11.0087C11.5534 40.4115 13.9235 38.4211 16.7609 38.4211C19.5982 38.4211 21.9683 40.4115 22.513 43.0526H34.3696V18.7368C34.3696 18.4297 34.4932 18.1352 34.7134 17.9181C34.9335 17.7009 35.2321 17.5789 35.5435 17.5789H43.9628C44.8967 17.5791 45.7924 17.9452 46.4526 18.5967L54.4681 26.5028C55.1286 27.1541 55.4998 28.0375 55.5 28.9587V41.8947C55.5 42.816 55.129 43.6996 54.4685 44.351C53.808 45.0024 52.9123 45.3684 51.9783 45.3684H50.687C50.1423 48.0096 47.7721 50 44.9348 50C42.0974 50 39.7273 48.0096 39.1826 45.3684H22.513C21.9683 48.0096 19.5982 50 16.7609 50C13.9235 50 11.5534 48.0096 11.0087 45.3684ZM16.7609 40.7368C17.6791 40.7602 18.5519 41.1365 19.193 41.7854C19.8341 42.4343 20.1928 43.3045 20.1928 44.2105C20.1928 45.1166 19.8341 45.9868 19.193 46.6357C18.5519 47.2846 17.6791 47.6608 16.7609 47.6842C15.8426 47.6608 14.9699 47.2846 14.3288 46.6357C13.6877 45.9868 13.3289 45.1166 13.3289 44.2105C13.3289 43.3045 13.6877 42.4343 14.3288 41.7854C14.9699 41.1365 15.8426 40.7602 16.7609 40.7368ZM44.9348 40.7368C45.8531 40.7602 46.7258 41.1365 47.3669 41.7854C48.008 42.4343 48.3668 43.3045 48.3668 44.2105C48.3668 45.1166 48.008 45.9868 47.3669 46.6357C46.7258 47.2846 45.8531 47.6608 44.9348 47.6842C44.0165 47.6608 43.1438 47.2846 42.5027 46.6357C41.8616 45.9868 41.5028 45.1166 41.5028 44.2105C41.5028 43.3045 41.8616 42.4343 42.5027 41.7854C43.1438 41.1365 44.0165 40.7602 44.9348 40.7368ZM50.687 43.0526H51.9783C52.2896 43.0526 52.5882 42.9306 52.8083 42.7135C53.0285 42.4963 53.1522 42.2018 53.1522 41.8947V33.7895H42.587C41.6529 33.7895 40.7572 33.4235 40.0967 32.7721C39.4363 32.1206 39.0652 31.2371 39.0652 30.3158V25.6842C39.0652 24.7629 39.4363 23.8794 40.0967 23.2279C40.7572 22.5765 41.6529 22.2105 42.587 22.2105H46.7966L44.7927 20.234C44.5726 20.0168 44.2741 19.8948 43.9628 19.8947H36.7174V43.0526H39.1826C39.7273 40.4115 42.0974 38.4211 44.9348 38.4211C47.7721 38.4211 50.1423 40.4115 50.687 43.0526ZM49.1444 24.5263H42.587C42.2756 24.5263 41.977 24.6483 41.7569 24.8655C41.5367 25.0826 41.413 25.3771 41.413 25.6842V30.3158C41.413 30.6229 41.5367 30.9174 41.7569 31.1345C41.977 31.3517 42.2756 31.4737 42.587 31.4737H53.1522V28.9587C53.1521 28.6517 53.0284 28.3572 52.8082 28.1401L49.1444 24.5263Z" fill="black"/>
</svg>
