<svg width="57" height="56" viewBox="0 0 57 56" fill="none" xmlns="http://www.w3.org/2000/svg">
<path fill-rule="evenodd" clip-rule="evenodd" d="M26.2203 11.4525C26.217 11.4535 26.2139 11.4546 26.2108 11.456C19.9117 14.1226 15.5 20.2678 15.5 27.4151C15.5 34.9828 20.4459 41.4269 27.3406 43.8086L27.3501 43.8121C28.0958 44.063 28.9057 44.0626 29.6511 43.8109L29.6594 43.8086C36.5541 41.4269 41.5 34.9828 41.5 27.4151C41.5 20.2678 37.0883 14.1226 30.7904 11.4548L30.7797 11.4502C30.0579 11.1527 29.2828 10.9996 28.4998 11C27.7168 11.0004 26.9417 11.1542 26.2203 11.4525ZM29.6818 41.318C35.2316 39.0465 39.1364 33.6738 39.1364 27.4151C39.1364 21.2223 35.3144 15.8984 29.8591 13.5839C29.4288 13.4072 28.967 13.3163 28.5005 13.3165C28.034 13.3167 27.5722 13.408 27.1421 13.5851C21.6856 15.8984 17.8636 21.2223 17.8636 27.4151C17.8636 33.675 21.7684 39.0476 27.3182 41.3192V37.1618L22.9372 32.8676C22.7219 32.6491 22.6028 32.3565 22.6055 32.0528C22.6082 31.7491 22.7325 31.4585 22.9516 31.2438C23.1707 31.029 23.4671 30.9072 23.777 30.9045C24.0868 30.9019 24.3854 31.0186 24.6083 31.2297L27.3182 33.8858V30.2114L22.9372 25.9173C22.7219 25.6988 22.6028 25.4062 22.6055 25.1025C22.6082 24.7987 22.7325 24.5082 22.9516 24.2934C23.1707 24.0787 23.4671 23.9568 23.777 23.9542C24.0868 23.9516 24.3854 24.0683 24.6083 24.2793L27.3182 26.9355V23.2611L24.119 20.1253C23.9037 19.9069 23.7846 19.6143 23.7873 19.3105C23.79 19.0068 23.9143 18.7163 24.1334 18.5015C24.3525 18.2867 24.6489 18.1649 24.9588 18.1623C25.2687 18.1596 25.5672 18.2764 25.7901 18.4874L28.5 21.1436L31.2099 18.4874C31.4328 18.2764 31.7313 18.1596 32.0412 18.1623C32.3511 18.1649 32.6475 18.2867 32.8666 18.5015C33.0857 18.7163 33.21 19.0068 33.2127 19.3105C33.2154 19.6143 33.0963 19.9069 32.881 20.1253L29.6818 23.2611V26.9355L32.3917 24.2793C32.6146 24.0683 32.9131 23.9516 33.223 23.9542C33.5329 23.9568 33.8293 24.0787 34.0484 24.2934C34.2675 24.5082 34.3918 24.7987 34.3945 25.1025C34.3972 25.4062 34.2781 25.6988 34.0628 25.9173L29.6818 30.2114V33.8858L32.3917 31.2297C32.6146 31.0186 32.9131 30.9019 33.223 30.9045C33.5329 30.9072 33.8293 31.029 34.0484 31.2438C34.2675 31.4585 34.3918 31.7491 34.3945 32.0528C34.3972 32.3565 34.2781 32.6491 34.0628 32.8676L29.6818 37.1618V41.318Z" fill="black"/>
<path fill-rule="evenodd" clip-rule="evenodd" d="M46.2754 45.0734V41.2817C46.2754 40.9703 46.1517 40.6717 45.9316 40.4516C45.7114 40.2314 45.4128 40.1077 45.1015 40.1077C44.7901 40.1077 44.4915 40.2314 44.2714 40.4516C44.0512 40.6717 43.9276 40.9703 43.9276 41.2817V47.9225C43.9276 48.2338 44.0512 48.5324 44.2714 48.7526C44.4915 48.9727 44.7901 49.0964 45.1015 49.0964H51.7423C52.0446 49.0829 52.3299 48.9533 52.5391 48.7346C52.7482 48.5159 52.8649 48.225 52.8649 47.9225C52.8649 47.6199 52.7482 47.329 52.5391 47.1103C52.3299 46.8917 52.0446 46.7621 51.7423 46.7486H47.9224C52.7896 41.7218 55.5075 34.997 55.5 28C55.5 13.0983 43.4016 1 28.5 1C24.0814 1 19.9093 2.06357 16.2256 3.94887C15.9485 4.09084 15.7391 4.33707 15.6436 4.6334C15.548 4.92972 15.5741 5.25186 15.7161 5.52896C15.8581 5.80605 16.1043 6.0154 16.4006 6.11094C16.6969 6.20649 17.0191 6.18041 17.2962 6.03843C20.7642 4.26468 24.6047 3.34237 28.5 3.34783C42.1056 3.34783 53.1522 14.3943 53.1522 28C53.1589 34.3672 50.6934 40.4884 46.2754 45.0734ZM9.07762 9.25144C4.21043 14.2782 1.49246 21.003 1.50002 28C1.50002 42.9016 13.5984 55 28.5 55C32.9186 55 37.0907 53.9364 40.7744 52.0511C41.0515 51.9092 41.2609 51.6629 41.3564 51.3666C41.452 51.0703 41.4259 50.7481 41.2839 50.471C41.1419 50.1939 40.8957 49.9846 40.5994 49.8891C40.3031 49.7935 39.9809 49.8196 39.7038 49.9616C36.2358 51.7353 32.3953 52.6576 28.5 52.6522C14.8944 52.6522 3.84784 41.6057 3.84784 28C3.84115 21.6328 6.3066 15.5116 10.7246 10.9266V14.7183C10.7246 15.0297 10.8483 15.3283 11.0684 15.5484C11.2886 15.7686 11.5872 15.8923 11.8985 15.8923C12.2099 15.8923 12.5085 15.7686 12.7286 15.5484C12.9488 15.3283 13.0724 15.0297 13.0724 14.7183V8.07752C13.0724 7.76618 12.9488 7.46759 12.7286 7.24744C12.5085 7.02729 12.2099 6.90361 11.8985 6.90361H5.25771C4.95545 6.91713 4.67005 7.04672 4.46095 7.26539C4.25184 7.48406 4.13514 7.77496 4.13514 8.07752C4.13514 8.38008 4.25184 8.67098 4.46095 8.88966C4.67005 9.10833 4.95545 9.23791 5.25771 9.25144H9.07762Z" fill="black"/>
</svg>
