<svg width="57" height="56" viewBox="0 0 57 56" fill="none" xmlns="http://www.w3.org/2000/svg">
<path fill-rule="evenodd" clip-rule="evenodd" d="M55.5 16.8333C55.4998 15.2862 54.8816 13.8025 53.7814 12.708C52.6801 11.6145 51.1871 11.0002 49.6304 11H7.36957C5.81285 11.0002 4.31988 11.6145 3.21861 12.708C2.11836 13.8025 1.50023 15.2862 1.5 16.8333V40.1667C1.5 41.7137 2.11865 43.1977 3.21861 44.292C4.31988 45.3855 5.81285 45.9998 7.36957 46H49.6304C51.1871 45.9998 52.6801 45.3855 53.7814 44.292C54.8816 43.1975 55.4998 41.7138 55.5 40.1667V16.8333ZM3.84783 22.6667V40.1667C3.84783 41.0953 4.21878 41.9855 4.8797 42.6412C5.20649 42.9664 5.59462 43.2244 6.02186 43.4004C6.44911 43.5763 6.90708 43.6668 7.36957 43.6667H49.6304C50.5649 43.6667 51.4606 43.298 52.1203 42.6412C52.4476 42.3164 52.7071 41.9307 52.8842 41.506C53.0613 41.0814 53.1523 40.6263 53.1522 40.1667V16.8333C53.1522 15.9047 52.7812 15.0145 52.1203 14.3588C51.7935 14.0336 51.4054 13.7756 50.9781 13.5996C50.5509 13.4237 50.0929 13.3332 49.6304 13.3333H7.36957C6.43513 13.3333 5.53943 13.702 4.8797 14.3588C4.55244 14.6836 4.29285 15.0693 4.11579 15.494C3.93873 15.9186 3.84767 16.3737 3.84783 16.8333V20.3333H49.6304C49.9418 20.3333 50.2404 20.4562 50.4605 20.675C50.6807 20.8938 50.8043 21.1906 50.8043 21.5C50.8043 21.8094 50.6807 22.1062 50.4605 22.325C50.2404 22.5438 49.9418 22.6667 49.6304 22.6667H3.84783Z" fill="black"/>
<path fill-rule="evenodd" clip-rule="evenodd" d="M51.5 33.6C51.5 32.6452 51.1207 31.7295 50.4456 31.0544C49.7705 30.3793 48.8548 30 47.9 30H43.1C42.1452 30 41.2295 30.3793 40.5544 31.0544C39.8793 31.7295 39.5 32.6452 39.5 33.6V38.4C39.5 39.3548 39.8793 40.2705 40.5544 40.9456C41.2295 41.6207 42.1452 42 43.1 42H47.9C48.8548 42 49.7705 41.6207 50.4456 40.9456C51.1207 40.2705 51.5 39.3548 51.5 38.4V33.6ZM49.1 33.6V38.4C49.1 38.7183 48.9736 39.0235 48.7485 39.2485C48.5235 39.4736 48.2183 39.6 47.9 39.6H43.1C42.7817 39.6 42.4765 39.4736 42.2515 39.2485C42.0264 39.0235 41.9 38.7183 41.9 38.4V33.6C41.9 33.2817 42.0264 32.9765 42.2515 32.7515C42.4765 32.5264 42.7817 32.4 43.1 32.4H47.9C48.2183 32.4 48.5235 32.5264 48.7485 32.7515C48.9736 32.9765 49.1 33.2817 49.1 33.6Z" fill="black"/>
</svg>
