<svg width="32" height="32" viewBox="0 0 32 32" fill="none" xmlns="http://www.w3.org/2000/svg">
<g clip-path="url(#clip0_1338_166)">
<path fill-rule="evenodd" clip-rule="evenodd" d="M10.2619 12.568L13.4145 9.41396C13.6003 9.22834 13.7478 9.00792 13.8483 8.7653C13.9489 8.52267 14.0007 8.26261 14.0007 7.99996C14.0007 7.73732 13.9489 7.47725 13.8483 7.23463C13.7478 6.99201 13.6003 6.77158 13.4145 6.58596L8.0812 1.25263C7.89558 1.06682 7.67516 0.919412 7.43253 0.818841C7.18991 0.718269 6.92984 0.666504 6.6672 0.666504C6.40456 0.666504 6.14449 0.718269 5.90187 0.818841C5.65924 0.919412 5.43882 1.06682 5.2532 1.25263L2.25787 4.2473C1.69468 4.81054 1.28496 5.50851 1.06769 6.27482C0.850409 7.04112 0.832799 7.85027 1.01653 8.6253L1.02253 8.64863C1.70587 11.3793 3.6992 17.194 9.2532 22.7473C14.8079 28.302 20.6239 30.296 23.3559 30.9746L23.3759 30.98C24.1503 31.1636 24.9588 31.146 25.7245 30.929C26.4902 30.712 27.1877 30.3026 27.7505 29.74C28.9359 28.56 30.7479 26.7473 30.7479 26.7473C30.9337 26.5617 31.0811 26.3413 31.1817 26.0986C31.2822 25.856 31.334 25.5959 31.334 25.3333C31.334 25.0707 31.2822 24.8106 31.1817 24.568C31.0811 24.3253 30.9337 24.1049 30.7479 23.9193L25.4145 18.586C25.2289 18.4002 25.0085 18.2527 24.7659 18.1522C24.5232 18.0516 24.2632 17.9998 24.0005 17.9998C23.7379 17.9998 23.4778 18.0516 23.2352 18.1522C22.9926 18.2527 22.7722 18.4002 22.5865 18.586L19.4332 21.7393C18.3499 21.3006 16.4259 20.2633 14.0812 17.9193C11.7372 15.5746 10.6999 13.6506 10.2619 12.568ZM7.13853 2.1953L12.4719 7.52863C12.5338 7.59049 12.583 7.66396 12.6165 7.74483C12.6501 7.82571 12.6673 7.91241 12.6673 7.99996C12.6673 8.08752 12.6501 8.17421 12.6165 8.25509C12.583 8.33597 12.5338 8.40944 12.4719 8.4713L9.11187 11.8313C8.75387 12.19 8.84653 12.58 8.85653 12.6166C9.21787 13.6693 10.2585 15.982 13.1385 18.862C16.0219 21.7453 18.3359 22.7846 19.3845 23.1446C19.5026 23.1852 19.6297 23.1917 19.7514 23.1635C19.873 23.1354 19.9843 23.0736 20.0725 22.9853L23.5292 19.5286C23.5911 19.4667 23.6645 19.4175 23.7454 19.384C23.8263 19.3504 23.913 19.3332 24.0005 19.3332C24.0881 19.3332 24.1748 19.3504 24.2557 19.384C24.3365 19.4175 24.41 19.4667 24.4719 19.5286L29.8052 24.862C29.8672 24.9238 29.9163 24.9973 29.9499 25.0782C29.9834 25.159 30.0007 25.2457 30.0007 25.3333C30.0007 25.4209 29.9834 25.5075 29.9499 25.5884C29.9163 25.6693 29.8672 25.7428 29.8052 25.8046C29.8052 25.8046 27.9945 27.6153 26.8085 28.796L26.8072 28.7973C26.4045 29.1998 25.9053 29.4923 25.3573 29.647C24.8094 29.8016 24.2309 29.8132 23.6772 29.6806C21.0645 29.0313 15.5079 27.1166 10.1959 21.8046C4.88453 16.4933 2.9692 10.9366 2.31587 8.3253L2.31387 8.3173C2.18258 7.76378 2.19513 7.18587 2.35033 6.63858C2.50553 6.09129 2.79822 5.59282 3.20053 5.19063L6.19587 2.1953C6.25772 2.13333 6.33119 2.08417 6.41207 2.05063C6.49295 2.01709 6.57964 1.99983 6.6672 1.99983C6.75476 1.99983 6.84145 2.01709 6.92233 2.05063C7.00321 2.08417 7.07667 2.13333 7.13853 2.1953Z" fill="black"/>
</g>
<defs>
<clipPath id="clip0_1338_166">
<rect width="32" height="32" fill="white"/>
</clipPath>
</defs>
</svg>
