<svg width="32" height="32" viewBox="0 0 32 32" fill="none" xmlns="http://www.w3.org/2000/svg">
<g clip-path="url(#clip0_1338_159)">
<path fill-rule="evenodd" clip-rule="evenodd" d="M21.2973 23.1812L23.254 25.1378L23.7253 25.6092L24.1966 26.0805L27.7253 29.6092C27.8483 29.7365 27.9954 29.8381 28.1581 29.908C28.3208 29.9778 28.4957 30.0146 28.6728 30.0162C28.8498 30.0177 29.0254 29.984 29.1892 29.9169C29.3531 29.8499 29.502 29.7509 29.6272 29.6257C29.7524 29.5005 29.8514 29.3516 29.9184 29.1878C29.9854 29.0239 30.0192 28.8483 30.0176 28.6713C30.0161 28.4943 29.9793 28.3193 29.9094 28.1566C29.8396 27.994 29.738 27.8468 29.6106 27.7238L26.082 24.1952L25.6106 23.7238L25.1393 23.2525L24.5506 22.6632C24.4292 22.5374 24.362 22.369 24.3635 22.1942C24.365 22.0194 24.4352 21.8522 24.5588 21.7286C24.6824 21.605 24.8496 21.5349 25.0244 21.5334C25.1992 21.5319 25.3676 21.5991 25.4933 21.7205L30.5533 26.7812C31.594 27.8218 31.594 29.5112 30.5533 30.5518C29.5126 31.5925 27.8233 31.5925 26.7826 30.5518L20.2046 23.9745C18.2253 25.2558 15.866 25.9998 13.3346 25.9998C6.34397 25.9998 0.667969 20.3238 0.667969 13.3332C0.667969 6.3425 6.34397 0.666504 13.3346 0.666504C20.3253 0.666504 26.0013 6.3425 26.0013 13.3332C26.0013 17.3085 24.166 20.8578 21.2973 23.1812ZM24.668 13.3332C24.668 7.07784 19.59 1.99984 13.3346 1.99984C7.0793 1.99984 2.0013 7.07784 2.0013 13.3332C2.0013 19.5885 7.0793 24.6665 13.3346 24.6665C19.59 24.6665 24.668 19.5885 24.668 13.3332Z" fill="black"/>
</g>
<defs>
<clipPath id="clip0_1338_159">
<rect width="32" height="32" fill="white"/>
</clipPath>
</defs>
</svg>
