<svg width="28" height="27" viewBox="0 0 28 27" fill="none" xmlns="http://www.w3.org/2000/svg">
<path fill-rule="evenodd" clip-rule="evenodd" d="M11.3218 2.83575L8.43459 8.97328L1.74079 9.83916C1.366 9.88745 1.01257 10.0419 0.721646 10.2844C0.430724 10.527 0.214291 10.8478 0.0975546 11.2093C-0.0191815 11.5709 -0.0314152 11.9583 0.0622783 12.3266C0.155972 12.6949 0.351736 13.0288 0.626769 13.2895L5.53655 17.9485L4.28613 24.6212C4.21609 24.9947 4.25293 25.3806 4.39237 25.7339C4.53182 26.0871 4.76812 26.3933 5.07378 26.6168C5.37945 26.8402 5.7419 26.9717 6.11895 26.9959C6.49599 27.0202 6.87213 26.9362 7.20358 26.7537L13.1246 23.4957L19.0457 26.7537C19.3772 26.9362 19.7533 27.0202 20.1304 26.9959C20.5074 26.9717 20.8699 26.8402 21.1755 26.6168C21.4812 26.3933 21.7175 26.0871 21.8569 25.7339C21.9964 25.3806 22.0332 24.9947 21.9632 24.6212L20.7127 17.9485L25.6225 13.2895C25.8978 13.0289 26.0938 12.695 26.1876 12.3267C26.2814 11.9583 26.2692 11.5707 26.1525 11.2091C26.0357 10.8474 25.8192 10.5266 25.5281 10.2841C25.237 10.0415 24.8834 9.88723 24.5085 9.83916L17.8147 8.97328L14.9275 2.83575C14.7659 2.49224 14.5107 2.20196 14.1915 1.99869C13.8724 1.79541 13.5024 1.6875 13.1246 1.6875C12.7469 1.6875 12.3769 1.79541 12.0578 1.99869C11.7386 2.20196 11.4834 2.49224 11.3218 2.83575ZM12.3531 3.32725C12.4223 3.18028 12.5315 3.05608 12.6681 2.96911C12.8047 2.88214 12.963 2.83598 13.1246 2.83598C13.2863 2.83598 13.4446 2.88214 13.5812 2.96911C13.7178 3.05608 13.827 3.18028 13.8962 3.32725L16.9164 9.74844C16.9573 9.83547 17.0193 9.91075 17.0967 9.96735C17.1741 10.0239 17.2644 10.06 17.3593 10.0723L24.363 10.9784C24.5235 10.9987 24.6749 11.0646 24.7995 11.1683C24.9241 11.272 25.0169 11.4092 25.0668 11.564C25.1168 11.7188 25.122 11.8846 25.0817 12.0423C25.0415 12.1999 24.9575 12.3427 24.8395 12.454L19.7026 17.3289C19.633 17.3949 19.5811 17.4775 19.5515 17.569C19.522 17.6605 19.5159 17.758 19.5337 17.8526L20.8417 24.8342C20.8718 24.994 20.856 25.1591 20.7964 25.3103C20.7368 25.4615 20.6357 25.5925 20.5049 25.6881C20.3741 25.7837 20.219 25.84 20.0577 25.8503C19.8963 25.8607 19.7354 25.8247 19.5936 25.7466L13.3986 22.337C13.3145 22.2909 13.2204 22.2668 13.1246 22.2668C13.0289 22.2668 12.9348 22.2909 12.8507 22.337L6.6557 25.7466C6.51391 25.8247 6.35297 25.8607 6.19163 25.8503C6.03029 25.84 5.8752 25.7837 5.74441 25.6881C5.61363 25.5925 5.51253 25.4615 5.45289 25.3103C5.39326 25.1591 5.37754 24.994 5.40757 24.8342L6.71563 17.8526C6.73343 17.758 6.72729 17.6605 6.69776 17.569C6.66824 17.4775 6.61629 17.3949 6.5467 17.3289L1.40978 12.454C1.29184 12.3427 1.20783 12.1999 1.16758 12.0423C1.12733 11.8846 1.13249 11.7188 1.18247 11.564C1.23245 11.4092 1.32517 11.272 1.44981 11.1683C1.57445 11.0646 1.72585 10.9987 1.88632 10.9784L8.89001 10.0723C8.98491 10.06 9.07522 10.0239 9.15261 9.96735C9.23001 9.91075 9.292 9.83547 9.33288 9.74844L12.3531 3.32725Z" fill="#FDBE87"/>
</svg>
