<svg width="32" height="32" viewBox="0 0 32 32" fill="none" xmlns="http://www.w3.org/2000/svg">
<path fill-rule="evenodd" clip-rule="evenodd" d="M16 16.6665H17.3333C20.3391 16.6665 23.2218 17.8605 25.3472 19.986C27.4726 22.1114 28.6667 24.9941 28.6667 27.9998V29.3332C28.6667 29.51 28.5964 29.6796 28.4714 29.8046C28.3464 29.9296 28.1768 29.9998 28 29.9998H4C3.82319 29.9998 3.65362 29.9296 3.5286 29.8046C3.40357 29.6796 3.33333 29.51 3.33333 29.3332V27.9998C3.33337 25.7286 4.01581 23.5098 5.29215 21.6311C6.5685 19.7524 8.37986 18.3006 10.4913 17.4638C10.6558 17.3987 10.7876 17.2709 10.8578 17.1085C10.928 16.9462 10.9308 16.7626 10.8657 16.5982C10.8005 16.4337 10.6727 16.3019 10.5104 16.2317C10.348 16.1615 10.1644 16.1587 10 16.2238C7.63996 17.1589 5.61537 18.7816 4.18886 20.8814C2.76235 22.9813 1.99975 25.4613 2 27.9998V29.3332C2 29.8636 2.21071 30.3723 2.58579 30.7474C2.96086 31.1225 3.46957 31.3332 4 31.3332H28C28.5304 31.3332 29.0391 31.1225 29.4142 30.7474C29.7893 30.3723 30 29.8636 30 29.3332V27.9998C30 25.0987 29.0041 22.2855 27.1788 20.0306C25.3535 17.7756 22.8095 16.2155 19.972 15.6112C21.1957 14.9111 22.2128 13.9002 22.9201 12.6806C23.6275 11.4611 24 10.0763 24 8.6665C24 4.25117 20.4153 0.666504 16 0.666504C11.5847 0.666504 8 4.25117 8 8.6665C8 13.0818 11.5847 16.6665 16 16.6665ZM16 1.99984C19.6793 1.99984 22.6667 4.98717 22.6667 8.6665C22.6667 12.3458 19.6793 15.3332 16 15.3332C12.3207 15.3332 9.33333 12.3458 9.33333 8.6665C9.33333 4.98717 12.3207 1.99984 16 1.99984Z" fill="black"/>
</svg>
